<svg xmlns="http://www.w3.org/2000/svg" viewBox="0 0 24 24" width="24" height="24" color="#88dd55" fill="none">
    <defs />
    <path fill="currentColor" d="M10.25,13.04 L10.25,6.638 C10.25,4.595 10.25,3.831 10.68,3.34 C10.984,2.994 11.294,2.826 11.753,2.762 C12.392,2.67 13.068,3.097 15.075,4.365 L15.086,4.372 C16.632,5.35 18.837,6.258 20.568,5.038 C20.797,4.877 21.097,4.856 21.345,4.985 C21.594,5.114 21.75,5.371 21.75,5.651 C21.75,7.939 20.406,10.015 18.325,10.941 C17.459,11.327 16.621,11.301 15.686,10.861 C14.515,10.308 13.195,9.435 11.75,8.26 L11.75,16.501 C11.75,19.12 9.619,21.251 7,21.251 C4.381,21.251 2.25,19.12 2.25,16.501 C2.25,13.882 4.381,11.751 7,11.751 C8.256,11.751 9.4,12.241 10.25,13.04 Z M3.75,16.501 C3.75,18.293 5.208,19.751 7,19.751 C8.792,19.751 10.25,18.293 10.25,16.501 C10.25,14.709 8.792,13.251 7,13.251 C5.208,13.251 3.75,14.709 3.75,16.501 Z M11.751,6.3 C13.481,7.809 15.019,8.887 16.326,9.505 C16.863,9.758 17.253,9.777 17.715,9.571 C18.852,9.065 19.692,8.094 20.054,6.937 C18.392,7.431 16.427,6.995 14.284,5.64 L14.274,5.633 L14.258,5.623 C13.166,4.933 12.219,4.336 11.912,4.256 C11.882,4.262 11.871,4.266 11.87,4.267 C11.87,4.267 11.861,4.274 11.841,4.295 C11.761,4.539 11.752,5.368 11.751,6.3 Z" />
</svg>